<svg xmlns="http://www.w3.org/2000/svg" viewBox="0 0 21 20" width="21" height="20">
	<style>
		tspan { white-space:pre }
		.shp0 { fill: #ffffff;stroke: #ffffff;stroke-width: 0.5 } 
	</style>
	<g id="shopping-cart">
		<g id="Group 106">
			<g id="Group 105">
				<path id="Path 325" fill-rule="evenodd" class="shp0" d="M20.21 3.35L18.57 9.52C18.57 9.68 18.41 9.83 18.25 9.83L6.3 11.37C6.63 11.92 7.28 12.22 7.94 12.22L17.26 12.22C17.51 12.22 17.67 12.38 17.67 12.61C17.67 12.84 17.51 13 17.26 13L7.86 13C6.55 13 5.32 12.07 5.07 10.83L3.11 1.42L0.98 1.42C0.74 1.42 0.57 1.26 0.57 1.03C0.57 0.8 0.74 0.64 0.98 0.64L3.44 0.64C3.6 0.64 3.85 0.8 3.85 0.95L4.26 2.96L19.8 2.96C19.96 2.96 20.05 3.04 20.13 3.11C20.21 3.19 20.21 3.35 20.21 3.35ZM19.23 3.66L4.42 3.66L5.89 10.6L17.84 9.14L19.23 3.66Z" />
			</g>
		</g>
		<g id="Group 108">
			<g id="Group 107">
				<path id="Path 326" fill-rule="evenodd" class="shp0" d="M10 16.29C10 17.61 8.96 18.64 7.64 18.64C6.32 18.64 5.29 17.61 5.29 16.29C5.29 14.97 6.32 13.94 7.64 13.94C8.96 13.94 10 14.97 10 16.29ZM9.05 16.29C9.05 15.54 8.4 14.88 7.64 14.88C6.89 14.88 6.23 15.54 6.23 16.29C6.23 17.04 6.89 17.7 7.64 17.7C8.4 17.7 9.05 17.04 9.05 16.29Z" />
			</g>
		</g>
		<g id="Group 110">
			<g id="Group 109">
				<path id="Path 327" fill-rule="evenodd" class="shp0" d="M17.39 16.29C17.39 17.61 16.35 18.64 15.03 18.64C13.71 18.64 12.68 17.61 12.68 16.29C12.68 14.97 13.71 13.94 15.03 13.94C16.35 13.94 17.39 14.97 17.39 16.29ZM16.44 16.29C16.44 15.54 15.79 14.88 15.03 14.88C14.28 14.88 13.62 15.54 13.62 16.29C13.62 17.04 14.28 17.7 15.03 17.7C15.79 17.7 16.44 17.04 16.44 16.29Z" />
			</g>
		</g>
	</g>
</svg>